<svg width="360" height="127" viewBox="0 0 360 127" fill="none" xmlns="http://www.w3.org/2000/svg">
<g opacity="0.1" filter="url(#filter0_d_60_91)">
<path d="M13.104 100.032H4.032V18.384H13.104V9.456H22.032V0.671991H50.256V9.456H59.04V18.384H67.968V37.824H57.6V19.968H48.672V11.04H23.472V19.968H14.688V98.592H23.472V107.376H48.672V98.592H57.6V71.808H67.968V100.032H59.04V108.96H50.256V118.032H22.032V108.96H13.104V100.032ZM76.032 80.736H85.104V71.808H120.672V46.608H86.688V64.464H76.032V45.168H85.104V36.24H122.256V45.168H131.04V107.376H139.968V118.032H129.6V108.96H113.328V118.032H85.104V108.96H76.032V80.736ZM111.744 107.376V98.592H120.672V82.32H86.688V107.376H111.744ZM156.96 36.24H167.328V45.168H174.672V36.24H202.896V46.608H176.256V55.536H167.328V118.032H156.96V36.24ZM242.496 46.608H224.496V36.24H242.496V9.456H252.864V36.24H279.504V46.608H252.864V107.376H279.504V118.032H251.28V108.96H242.496V46.608ZM292.032 89.664H302.688V107.376H345.6V82.32H301.104V73.392H292.032V45.168H301.104V36.24H347.04V45.168H355.968V64.464H345.6V46.608H302.688V71.808H347.04V80.736H355.968V108.96H347.04V118.032H301.104V108.96H292.032V89.664Z" fill="white"/>
</g>
<defs>
<filter id="filter0_d_60_91" x="0.0320129" y="0.671997" width="359.936" height="125.36" filterUnits="userSpaceOnUse" color-interpolation-filters="sRGB">
<feFlood flood-opacity="0" result="BackgroundImageFix"/>
<feColorMatrix in="SourceAlpha" type="matrix" values="0 0 0 0 0 0 0 0 0 0 0 0 0 0 0 0 0 0 127 0" result="hardAlpha"/>
<feOffset dy="4"/>
<feGaussianBlur stdDeviation="2"/>
<feComposite in2="hardAlpha" operator="out"/>
<feColorMatrix type="matrix" values="0 0 0 0 0 0 0 0 0 0 0 0 0 0 0 0 0 0 0.25 0"/>
<feBlend mode="normal" in2="BackgroundImageFix" result="effect1_dropShadow_60_91"/>
<feBlend mode="normal" in="SourceGraphic" in2="effect1_dropShadow_60_91" result="shape"/>
</filter>
</defs>
</svg>
